HIERARCHY
ROOT Hips
{
	OFFSET 0.00000 0.00000 0.00000
	CHANNELS 6 Xposition Yposition Zposition Zrotation Yrotation Xrotation 
	JOINT LHipJoint
	{
		OFFSET 0 0 0
		CHANNELS 3 Zrotation Yrotation Xrotation
		JOINT LeftUpLeg
		{
			OFFSET 1.44361 -1.63093 0.70831
			CHANNELS 3 Zrotation Yrotation Xrotation
			JOINT LeftLeg
			{
				OFFSET 2.20103 -6.04728 0.00000
				CHANNELS 3 Zrotation Yrotation Xrotation
				JOINT LeftFoot
				{
					OFFSET 2.54154 -6.98283 0.00000
					CHANNELS 3 Zrotation Yrotation Xrotation
					JOINT LeftToeBase
					{
						OFFSET 0.05971 -0.16406 1.77582
						CHANNELS 3 Zrotation Yrotation Xrotation
						End Site
						{
							OFFSET 0.00000 -0.00000 0.90832
						}
					}
				}
			}
		}
	}
	JOINT RHipJoint
	{
		OFFSET 0 0 0
		CHANNELS 3 Zrotation Yrotation Xrotation
		JOINT RightUpLeg
		{
			OFFSET -1.65838 -1.63093 0.70830
			CHANNELS 3 Zrotation Yrotation Xrotation
			JOINT RightLeg
			{
				OFFSET -2.26926 -6.23475 0.00000
				CHANNELS 3 Zrotation Yrotation Xrotation
				JOINT RightFoot
				{
					OFFSET -2.34808 -6.45129 0.00000
					CHANNELS 3 Zrotation Yrotation Xrotation
					JOINT RightToeBase
					{
						OFFSET -0.18633 -0.51195 1.68539
						CHANNELS 3 Zrotation Yrotation Xrotation
						End Site
						{
							OFFSET -0.00000 -0.00000 0.88927
						}
					}
				}
			}
		}
	}
	JOINT LowerBack
	{
		OFFSET 0 0 0
		CHANNELS 3 Zrotation Yrotation Xrotation
		JOINT Spine
		{
			OFFSET -0.10393 2.01691 0.06920
			CHANNELS 3 Zrotation Yrotation Xrotation
			JOINT Spine1
			{
				OFFSET 0.04092 2.01302 -0.05283
				CHANNELS 3 Zrotation Yrotation Xrotation
				JOINT Neck
				{
					OFFSET 0 0 0
					CHANNELS 3 Zrotation Yrotation Xrotation
					JOINT Neck1
					{
						OFFSET -0.02870 1.58978 -0.03113
						CHANNELS 3 Zrotation Yrotation Xrotation
						JOINT Head
						{
							OFFSET 0.11532 1.54326 -0.29195
							CHANNELS 3 Zrotation Yrotation Xrotation
							End Site
							{
								OFFSET 0.04056 1.59999 -0.09535
							}
						}
					}
				}
				JOINT LeftShoulder
				{
					OFFSET 0 0 0
					CHANNELS 3 Zrotation Yrotation Xrotation
					JOINT LeftArm
					{
						OFFSET 3.30641 1.15764 0.01104
						CHANNELS 3 Zrotation Yrotation Xrotation
						JOINT LeftForeArm
						{
							OFFSET 4.63208 -0.00000 0.00000
							CHANNELS 3 Zrotation Yrotation Xrotation
							JOINT LeftHand
							{
								OFFSET 3.41924 -0.00000 -0.00000
								CHANNELS 3 Zrotation Yrotation Xrotation
								JOINT LeftFingerBase
								{
									OFFSET 0 0 0
									CHANNELS 3 Zrotation Yrotation Xrotation
									JOINT LeftHandIndex1
									{
										OFFSET 0.62537 -0.00000 -0.00000
										CHANNELS 3 Zrotation Yrotation Xrotation
										End Site
										{
											OFFSET 0.50419 -0.00000 -0.00000
										}
									}
								}
								JOINT LThumb
								{
									OFFSET 0 0 0
									CHANNELS 3 Zrotation Yrotation Xrotation
									End Site
									{
										OFFSET 0.51189 -0.00000 0.51189
									}
								}
							}
						}
					}
				}
				JOINT RightShoulder
				{
					OFFSET 0 0 0
					CHANNELS 3 Zrotation Yrotation Xrotation
					JOINT RightArm
					{
						OFFSET -3.78081 1.02180 -0.16609
						CHANNELS 3 Zrotation Yrotation Xrotation
						JOINT RightForeArm
						{
							OFFSET -4.40640 -0.00000 -0.00000
							CHANNELS 3 Zrotation Yrotation Xrotation
							JOINT RightHand
							{
								OFFSET -3.44675 -0.00000 0.00000
								CHANNELS 3 Zrotation Yrotation Xrotation
								JOINT RightFingerBase
								{
									OFFSET 0 0 0
									CHANNELS 3 Zrotation Yrotation Xrotation
									JOINT RightHandIndex1
									{
										OFFSET -0.51367 -0.00000 -0.00000
										CHANNELS 3 Zrotation Yrotation Xrotation
										End Site
										{
											OFFSET -0.41414 -0.00000 -0.00000
										}
									}
								}
								JOINT RThumb
								{
									OFFSET 0 0 0
									CHANNELS 3 Zrotation Yrotation Xrotation
									End Site
									{
										OFFSET -0.42046 -0.00000 0.42046
									}
								}
							}
						}
					}
				}
			}
		}
	}
}
MOTION
Frames: 7
Frame Time: .0083333
8.4900 15.6514 11.7678 178.3670 6.9913 -174.0380 0.0000 0.0000 0.0000 -21.4114 -11.8441 -35.1464 4.5810 12.8958 38.9797 0.4764 -1.0521 -12.7157 7.5820 -15.8030 -51.0426 0.0000 0.0000 0.0000 1.9874 11.2709 0.6930 -13.3362 -18.9002 70.1666 -40.1437 22.4862 -165.2294 -3.9545 12.0996 -36.0854 -7.1365 3.5812 -2.2313 2.3833 5.2243 4.6370 6.8260 2.3059 5.2588 -2.4661 -2.1803 -4.4425 4.6332 -5.6084 22.7337 1.4018 -3.1202 7.9238 0.0000 0.0000 0.0000 -51.3138 29.6103 35.2198 16.9751 -26.8249 -4.0761 -0.0000 -0.0000 7.9390 35.5562 -17.2326 -11.9559 -7.1250 0.0000 -0.0000 4.9555 9.1727 -4.1180 0.0000 0.0000 0.0000 59.9158 4.0594 18.5841 -24.6060 35.7986 -8.0583 0.0000 0.0000 4.9695 -24.1819 -41.2983 16.5075 7.1250 -0.0000 -0.0000 20.5632 -73.0139 -13.8159
8.3880 15.6788 11.6593 177.3000 6.6799 -174.6050 0.0000 0.0000 0.0000 -23.4940 -11.4045 -33.5857 4.3389 12.5982 37.8824 0.4771 -1.9514 -12.5195 7.3444 -15.6152 -50.1650 0.0000 0.0000 0.0000 -0.3425 15.1181 -7.1414 -11.9870 -18.3851 65.9476 -39.4754 20.3217 -161.7354 -3.6389 11.6637 -34.5526 -7.1749 2.9059 -1.2358 2.0755 4.3299 5.1244 6.4413 1.8683 5.3808 -2.4371 -1.8327 -3.8364 4.4244 -5.0868 22.4159 1.3840 -2.9093 7.6800 -0.0000 -0.0000 0.0000 -55.0690 26.4989 31.6639 16.8383 -26.6441 -4.0146 -0.0000 -0.0000 7.7092 36.8194 -20.0232 -14.3771 -7.1250 0.0000 -0.0000 5.2777 5.5910 -4.7591 -0.0000 -0.0000 0.0000 61.8049 1.0794 16.4029 -23.7445 34.8929 -7.5599 0.0000 0.0000 5.4972 -26.1569 -43.7041 18.7439 7.1250 -0.0000 -0.0000 22.7925 -75.8304 -16.7008
8.3040 15.7114 11.5933 176.5050 6.7434 -175.4960 0.0000 0.0000 0.0000 -25.1308 -10.4225 -31.9901 4.1150 12.3119 36.8444 0.4686 -2.3156 -12.3406 7.3551 -15.6238 -50.2050 0.0000 0.0000 0.0000 -2.8517 18.3437 -16.4774 -11.5044 -18.1732 64.4090 -39.2045 17.4982 -161.1773 -2.9748 10.6541 -31.1220 -7.1737 2.2985 0.5081 1.8319 3.5059 5.7163 6.0793 1.4962 5.1664 -2.5862 -1.4310 -3.2749 4.2174 -4.4010 21.8179 1.4086 -2.6146 7.3522 0.0000 0.0000 0.0000 -58.6612 22.9219 27.8827 16.8808 -26.7004 -4.0336 -0.0000 -0.0000 9.9817 36.7785 -19.4475 -13.9757 -7.1250 0.0000 -0.0000 5.3551 6.2776 -4.7588 0.0000 0.0000 0.0000 63.7610 -1.6363 14.1283 -22.7903 33.8587 -7.0211 0.0000 0.0000 6.8448 -25.1937 -43.2573 17.8680 7.1250 -0.0000 -0.0000 23.1069 -75.0862 -16.5798
8.2454 15.7358 11.5588 175.7190 6.4034 -176.7470 0.0000 0.0000 0.0000 -26.6675 -9.7735 -30.1687 3.9529 12.0975 36.0777 0.4538 -2.3691 -12.1296 7.5967 -15.8145 -51.0968 0.0000 0.0000 0.0000 -5.2065 20.4386 -26.3501 -12.1012 -18.4331 66.3094 -39.5920 16.2740 -164.7768 -0.5233 4.6358 -12.8728 -7.4945 1.5414 2.8288 1.6200 2.4965 6.4634 5.9460 1.0393 4.8097 -2.5595 -2.9265 -2.6774 3.3218 -2.9175 21.0167 1.3770 -0.7645 6.9302 -0.0000 -0.0000 0.0000 -61.7259 19.1885 24.8544 17.2206 -27.1477 -4.1875 -0.0000 -0.0000 12.0265 37.7876 -19.3236 -14.3895 -7.1250 0.0000 -0.0000 6.0052 6.1629 -5.3560 -0.0000 -0.0000 0.0000 65.7025 -4.4769 12.5629 -22.1983 33.2004 -6.6941 0.0000 0.0000 6.9432 -24.8933 -43.2957 17.6523 7.1250 -0.0000 -0.0000 23.6046 -75.0060 -16.9063
8.2161 15.7501 11.5373 174.7580 5.7462 -178.4310 0.0000 0.0000 0.0000 -28.3671 -9.3194 -27.9845 3.8333 11.9352 35.5031 0.4348 -2.3606 -11.8652 7.6999 -15.8940 -51.4744 0.0000 0.0000 0.0000 -7.2895 21.0369 -36.0601 -13.7527 -19.0373 71.4477 -40.5290 22.9688 -167.9166 -6.2098 -14.6286 45.8179 -8.4242 0.7531 5.5173 1.3984 1.4757 7.4317 6.1981 0.5685 4.5095 -2.5648 -2.3038 -2.1635 2.9338 -2.1212 19.8704 1.2949 -0.4804 6.4415 -0.0000 -0.0000 0.0000 -64.2599 15.2965 22.5984 17.9706 -28.1195 -4.5354 -0.0000 -0.0000 13.1958 39.3940 -19.5319 -15.3530 -7.1250 0.0000 -0.0000 6.9586 5.4766 -6.3105 -0.0000 -0.0000 0.0000 67.6075 -7.6637 11.2513 -21.9457 32.9156 -6.5563 0.0000 0.0000 6.9372 -22.7580 -43.5592 16.1234 7.1250 -0.0000 -0.0000 27.0182 -74.4293 -19.1039
8.2129 15.7566 11.5201 173.7110 4.8115 -180.2190 0.0000 0.0000 0.0000 -30.1301 -9.1551 -25.6501 3.7422 11.8092 35.0602 0.4213 -2.3210 -11.6788 7.6029 -15.8192 -51.1193 0.0000 0.0000 0.0000 -8.7927 20.8217 -44.1788 -18.3562 -19.9351 85.1888 -82.7808 72.2896 157.8299 -6.9775 -15.3129 48.7893 -9.9519 -0.0379 8.2582 1.2583 0.4456 8.4873 6.9389 0.0720 4.3588 -2.6221 -1.6893 -1.7933 2.4717 -1.3344 18.7085 1.1925 -0.2017 5.9830 0.0000 0.0000 0.0000 -66.4382 11.0382 20.8299 19.1696 -29.6289 -5.1144 -0.0000 -0.0000 12.3900 38.9944 -19.2036 -14.9121 -7.1250 0.0000 -0.0000 6.7753 5.9820 -6.0759 0.0000 0.0000 0.0000 69.3331 -10.8666 9.8403 -21.7215 32.6608 -6.4349 0.0000 0.0000 7.8491 -20.4948 -43.4095 14.4059 7.1250 -0.0000 -0.0000 29.4949 -73.4787 -20.3421
8.2165 15.7642 11.5007 173.0020 3.7976 -181.5120 0.0000 0.0000 0.0000 -31.5357 -9.4402 -23.6496 3.6705 11.7085 34.7086 0.4268 -2.1170 -11.7910 7.6367 -15.8454 -51.2434 0.0000 0.0000 0.0000 -9.5123 19.9228 -49.8258 -18.7858 -19.9646 86.4479 10.0708 47.0858 18.7031 -4.7307 -13.0740 39.6460 -11.3374 -0.7832 10.6304 1.2515 -0.5601 9.3519 7.7935 -0.4194 4.2936 -2.6337 -1.1060 -1.5953 1.8027 -0.5428 17.7915 1.0168 0.0891 5.6392 -0.0000 0.0000 0.0000 -68.3161 6.4984 19.2398 20.4603 -31.1930 -5.7679 -0.0000 -0.0000 11.6660 39.2441 -19.3391 -15.1368 -7.1250 0.0000 -0.0000 6.9036 5.7503 -6.2235 -0.0000 0.0000 0.0000 70.9314 -13.8594 8.0844 -21.2624 32.1333 -6.1889 0.0000 0.0000 9.4919 -19.5002 -41.9843 13.3267 7.1250 -0.0000 -0.0000 27.7805 -71.9646 -18.2219
